# https://github.com/mikedh/trimesh
v 0.00000000 0.44500000 0.00000000
v 0.00000000 0.44500000 0.05000000
v -0.00000000 -0.50000000 0.00000000
v -0.00000000 -0.50000000 0.05000000
v 0.00000000 0.50000000 0.00000000
v 0.00000000 0.50000000 0.05000000
v -0.00000000 -0.44500000 0.00000000
v -0.00000000 -0.44500000 0.05000000
v 0.31466252 0.31466252 0.00000000
v 0.31466252 0.31466252 0.05000000
v 0.31466252 -0.31466252 0.00000000
v 0.31466252 -0.31466252 0.05000000
v 0.44500000 0.00000000 0.00000000
v 0.44500000 0.00000000 0.05000000
v -0.35355339 -0.35355339 0.00000000
v -0.35355339 -0.35355339 0.05000000
v -0.35355339 0.35355339 0.00000000
v -0.35355339 0.35355339 0.05000000
v -0.50000000 0.00000000 0.00000000
v -0.50000000 0.00000000 0.05000000
v 0.50000000 0.00000000 0.00000000
v 0.50000000 0.00000000 0.05000000
v 0.35355339 -0.35355339 0.00000000
v 0.35355339 -0.35355339 0.05000000
v 0.35355339 0.35355339 0.00000000
v 0.35355339 0.35355339 0.05000000
v -0.44500000 0.00000000 0.00000000
v -0.44500000 0.00000000 0.05000000
v -0.31466252 0.31466252 0.00000000
v -0.31466252 0.31466252 0.05000000
v -0.31466252 -0.31466252 0.00000000
v -0.31466252 -0.31466252 0.05000000
f 22 26 14
f 14 26 10
f 26 6 10
f 10 6 2
f 6 18 2
f 2 18 30
f 18 20 30
f 30 20 28
f 20 16 28
f 28 16 32
f 16 4 32
f 32 4 8
f 4 24 8
f 8 24 12
f 24 22 12
f 12 22 14
f 21 13 25
f 13 9 25
f 25 9 5
f 9 1 5
f 5 1 17
f 1 29 17
f 17 29 19
f 29 27 19
f 19 27 15
f 27 31 15
f 15 31 3
f 31 7 3
f 3 7 23
f 7 11 23
f 23 11 21
f 11 13 21
f 21 25 26
f 21 26 22
f 25 5 6
f 25 6 26
f 5 17 18
f 5 18 6
f 17 19 20
f 17 20 18
f 19 15 16
f 19 16 20
f 15 3 4
f 15 4 16
f 3 23 24
f 3 24 4
f 23 21 22
f 23 22 24
f 13 10 9
f 13 14 10
f 9 2 1
f 9 10 2
f 1 30 29
f 1 2 30
f 29 28 27
f 29 30 28
f 27 32 31
f 27 28 32
f 31 8 7
f 31 32 8
f 7 12 11
f 7 8 12
f 11 14 13
f 11 12 14